<?xml version="1.0" encoding="UTF-8"?>
<svg width="250px" height="53px" viewBox="0 0 250 53" version="1.1" xmlns="http://www.w3.org/2000/svg" xmlns:xlink="http://www.w3.org/1999/xlink">
    <!-- Generator: Sketch 48.2 (47327) - http://www.bohemiancoding.com/sketch -->
    <title>logo</title>
    <desc>Created with Sketch.</desc>
    <defs>
        <polygon id="path-1" points="0 0.213140703 0 51.9474484 52.1205814 51.9474484 52.1205814 0.213140703 0 0.213140703"></polygon>
    </defs>
    <g id="styleguide_brand" stroke="none" stroke-width="1" fill="none" fill-rule="evenodd" transform="translate(-60.000000, -120.000000)">
        <g id="logo" transform="translate(60.000000, 120.000000)">
            <g>
                <g id="Group-3" transform="translate(0.000000, 0.853511)">
                    <mask id="mask-2" fill="white">
                        <use xlink:href="#path-1"></use>
                    </mask>
                    <g id="Clip-2"></g>
                    <path d="M52.1205814,0.213140703 L52.1205814,51.9474484 L17.4514485,51.9474484 C7.81308792,51.9474484 -9.28372238e-05,44.1921862 -9.28372238e-05,34.625274 L-9.28372238e-05,0.213140703 L32.8132239,0.213140703 L52.1205814,0.213140703 Z" id="Fill-1" fill="#FFDC00" mask="url(#mask-2)"></path>
                </g>
                <polygon id="Fill-4" fill="#10265C" points="42.9942881 26.4588564 42.9942881 9.38862645 25.7965728 9.38862645 25.7965728 17.1036853 35.2386718 17.1036853 35.2386718 26.4588564"></polygon>
                <g id="Group-21" transform="translate(68.781315, 0.000000)" fill="#10265C">
                    <path d="M9.1237866,4.89171824 C11.8240883,4.89171824 12.9099336,5.47391911 12.9099336,7.09833703 C12.9099336,8.56911228 11.6998993,9.30495582 9.30983919,9.30495582 L4.9032091,9.30495582 L4.9032091,4.89171824 L9.1237866,4.89171824 Z M4.9032091,13.1359925 L9.65147421,13.1359925 C12.1652616,13.1359925 13.4376212,13.9324725 13.4376212,15.4957981 C13.4376212,17.3039489 12.1029363,17.9782442 9.52728526,17.9782442 L4.9032091,17.9782442 L4.9032091,13.1359925 Z M10.5826605,22.1767468 C12.84807,22.1767468 14.6481172,21.5945459 16.0137339,20.4602344 C17.4098208,19.2962886 18.0930909,17.7635092 18.0930909,15.894266 C18.0930909,13.9023822 17.1619046,12.2775084 15.3304639,10.9904661 C16.8202696,9.85661052 17.5654033,8.38537935 17.5654033,6.63877675 C17.5654033,2.80774004 14.6167237,0.693215675 10.0549729,0.693215675 L0.27913294,0.693215675 L0.27913294,22.1767468 L10.5826605,22.1767468 Z" id="Fill-7"></path>
                    <path d="M33.4145905,2.16690877 C33.0632604,1.27833438 32.1957845,0.69339804 31.2299731,0.69339804 L28.4244109,0.69339804 L19.9209306,22.1773851 L24.7005892,22.1773851 L26.4069176,17.9478804 L34.8180641,17.9478804 L36.555786,22.1773851 L41.334983,22.1773851 L33.4145905,2.16690877 Z M27.9281168,13.9025646 L30.6279568,6.8842403 L33.3282584,13.9025646 L27.9281168,13.9025646 Z" id="Fill-9"></path>
                    <path d="M63.6651712,22.1772483 L63.6651712,0.693261267 L59.0720268,0.693261267 L59.0720268,15.2510184 L50.9715835,1.82392544 C50.5482331,1.12273129 49.782786,0.693261267 48.9563986,0.693261267 L44.7339744,0.693261267 L44.7339744,22.1772483 L49.3580506,22.1772483 L49.3580506,7.6810394 L57.4580322,21.0497755 C57.8818443,21.7496019 58.6459064,22.1772483 59.4709088,22.1772483 L63.6651712,22.1772483 Z" id="Fill-11"></path>
                    <path d="M85.1801444,15.250836 C83.6903387,17.2431757 81.7351707,18.2543907 79.2837086,18.2543907 C77.3904043,18.2543907 75.8073415,17.6416437 74.5349818,16.4156937 C73.2630839,15.1897437 72.6107457,13.5042334 72.6107457,11.3892532 C72.6107457,9.30527496 73.2630839,7.65031087 74.5349818,6.45536297 C75.8387349,5.22941298 77.328079,4.61621003 79.0348691,4.61621003 C80.705649,4.61621003 82.2397749,5.15509917 83.4461158,6.0979272 C84.3532953,6.80641595 85.6773619,6.65186146 86.4871292,5.83623315 L87.9109162,4.40147502 C85.707832,1.70474979 82.8214778,0.356159214 79.2523151,0.356159214 C75.9938557,0.356159214 73.2940157,1.3678301 71.1214017,3.42126213 C68.9492493,5.44369208 67.8629422,8.14087323 67.8629422,11.4813476 C67.8629422,14.7912758 68.9492493,17.4574548 71.1214017,19.4803407 C73.3249475,21.5032265 76.0871128,22.5144415 79.4074359,22.5144415 C83.0698556,22.5144415 86.0176119,21.1658509 88.2525512,18.4691257 L85.1801444,15.250836 Z" id="Fill-13"></path>
                    <path d="M109.718034,3.51285505 C107.545419,1.39833068 104.876511,0.356113623 101.711309,0.356113623 C98.5765769,0.356113623 95.9076687,1.39833068 93.7659864,3.51285505 C91.6252275,5.59683325 90.5384588,8.23292206 90.5384588,11.4202096 C90.5384588,14.6380434 91.6252275,17.2736763 93.7659864,19.3882007 C95.9076687,21.4726348 98.5765769,22.5143959 101.711309,22.5143959 C104.876511,22.5143959 107.545419,21.4726348 109.718034,19.3882007 C111.890186,17.2736763 112.976493,14.6380434 112.976493,11.4202096 C112.976493,8.23292206 111.890186,5.59683325 109.718034,3.51285505 M106.521438,16.2624613 C105.373267,17.5800498 103.790204,18.2237989 101.835036,18.2237989 C99.8180047,18.2237989 98.2349418,17.5800498 97.0558394,16.2624613 C95.8767369,14.9444169 95.2871856,13.3505452 95.2871856,11.4202096 C95.2871856,9.51996438 95.8767369,7.92654854 97.0558394,6.60850413 C98.2663353,5.29045973 99.8489365,4.64671061 101.835036,4.64671061 C103.727879,4.64671061 105.249078,5.32146181 106.459112,6.63859439 C107.669608,7.95663879 108.290091,9.55051055 108.290091,11.4202096 C108.290091,13.3505452 107.701002,14.9444169 106.521438,16.2624613" id="Fill-15"></path>
                    <path d="M172.532064,31.6846295 C172.180272,30.7955992 171.312335,30.2106628 170.346523,30.2106628 L167.540038,30.2106628 L159.031941,51.7051358 L163.813446,51.7051358 L165.521159,47.4738075 L173.935999,47.4738075 L175.675106,51.7051358 L180.45615,51.7051358 L172.532064,31.6846295 Z M167.04282,43.4262122 L169.744045,36.4046965 L172.445732,43.4262122 L167.04282,43.4262122 Z" id="Fill-17"></path>
                    <path d="M47.6181588,44.7752131 C46.1274298,46.7684646 44.1718001,47.7805914 41.718953,47.7805914 C39.8247253,47.7805914 38.2412008,47.1669325 36.9683796,45.9405266 C35.6950966,44.7141207 35.0432201,43.0276986 35.0432201,40.9118065 C35.0432201,38.8269165 35.6950966,37.1710406 36.9683796,35.9751809 C38.2725943,34.748775 39.7624,34.135572 41.4705751,34.135572 C43.1215033,34.135572 44.6390091,34.6616956 45.8393484,35.5835516 C46.7696113,36.2975113 48.1010645,36.1867245 48.9260669,35.356051 L50.3507773,33.920837 C48.1463081,31.2222881 45.2585688,29.8732416 41.6875595,29.8732416 C38.4277151,29.8732416 35.7260284,30.8849125 33.552491,32.9397123 C31.3789536,34.96351 30.2926466,37.661603 30.2926466,41.003901 C30.2926466,44.3151969 31.3789536,46.9831996 33.552491,49.0065414 C35.7574219,51.030795 38.5205106,52.0420099 41.8426803,52.0420099 C45.5069467,52.0420099 48.4565496,50.6929635 50.6919506,47.9948705 L47.6181588,44.7752131 Z" id="Fill-19"></path>
                </g>
                <polygon id="Fill-22" fill="#10265C" points="90.288005 52.0642012 94.5874338 52.0642012 94.5874338 30.7264138 90.288005 30.7264138"></polygon>
                <g id="Group-35" transform="translate(68.790861, 29.872902)" fill="#10265C">
                    <path d="M83.4974486,0.582434538 L78.9063195,0.582434538 L78.9063195,22.3118471 L83.5034525,22.3118471 L83.5034525,0.587965292 C83.5011433,0.586121707 83.4997578,0.584739019 83.4974486,0.582434538" id="Fill-23"></path>
                    <path d="M73.2387389,22.3120776 L73.2387389,0.582664986 L70.9909746,0.582664986 C69.6932105,0.582664986 68.6416059,1.63212565 68.6416059,2.9267831 L68.6416059,9.10694035 L59.5092262,9.10694035 L59.5092262,0.582664986 L54.8816119,0.582664986 L54.8816119,22.3120776 L59.5092262,22.3120776 L59.5092262,13.322758 L68.6416059,13.322758 L68.6416059,22.3120776 L73.2387389,22.3120776 Z" id="Fill-25"></path>
                    <path d="M15.2086405,2.56645444 C13.655942,1.23308171 11.6053823,0.582296269 9.02740401,0.582296269 L0.206302924,0.582296269 L0.206302924,22.3121698 L4.83437905,22.3121698 L4.83437905,15.4305285 L9.02740401,15.4305285 C11.5434961,15.4305285 13.5935939,14.748863 15.1776974,13.3532693 C16.7618009,11.9585974 17.5381501,10.1297612 17.5381501,7.86722173 C17.5381501,5.63510139 16.7618009,3.86802533 15.2086405,2.56645444 M8.22011162,11.1838308 L4.83437905,11.1838308 L4.83437905,4.82899393 L8.22011162,4.82899393 C11.4192617,4.82899393 12.941479,5.75908247 12.941479,7.95986187 C12.941479,10.0988812 11.3569136,11.1838308 8.22011162,11.1838308" id="Fill-27"></path>
                    <path d="M108.118758,22.3120776 L108.118758,0.582664986 L103.522087,0.582664986 L103.522087,15.3069161 L95.4145252,1.72660937 C94.99102,1.01729011 94.2248312,0.582664986 93.3972179,0.582664986 L89.1718643,0.582664986 L89.1718643,22.3120776 L93.7994786,22.3120776 L93.7994786,7.65004743 L101.906579,21.1718204 C102.330546,21.8792961 103.095349,22.3120776 103.921115,22.3120776 L108.118758,22.3120776 Z" id="Fill-29"></path>
                    <path d="M129.652359,15.3067779 C128.161085,17.3213552 126.20474,18.3445448 123.750996,18.3445448 C121.856076,18.3445448 120.271972,17.7246394 118.998686,16.4848286 C117.724937,15.2445569 117.072822,13.5397018 117.072822,11.4006825 C117.072822,9.29300415 117.724937,7.61902912 118.998686,6.41009837 C120.302916,5.17028757 121.793728,4.55038217 123.502528,4.55038217 C125.17438,4.55038217 126.709529,5.09608328 127.916773,6.04875574 C128.825208,6.76544934 130.15022,6.60920553 130.960745,5.78420132 L132.385977,4.33330006 C130.180701,1.6057163 127.291906,0.241463523 123.719591,0.241463523 C120.458555,0.241463523 117.75588,1.2646531 115.581548,3.34145142 C113.407678,5.38783058 112.320512,8.11495344 112.320512,11.4942444 C112.320512,14.8417336 113.407678,17.5384373 115.581548,19.5843556 C117.787285,21.6302738 120.551384,22.6530025 123.874769,22.6530025 C127.540375,22.6530025 130.491056,21.2887497 132.727275,18.5616269 L129.652359,15.3067779 Z" id="Fill-31"></path>
                    <path d="M155.324534,22.3120776 L155.324534,0.582664986 L153.07677,0.582664986 C151.779006,0.582664986 150.727401,1.63212565 150.727401,2.9267831 L150.727401,9.10694035 L141.595021,9.10694035 L141.595021,0.582664986 L136.967407,0.582664986 L136.967407,22.3120776 L141.595021,22.3120776 L141.595021,13.322758 L150.727401,13.322758 L150.727401,22.3120776 L155.324534,22.3120776 Z" id="Fill-33"></path>
                </g>
            </g>
        </g>
    </g>
</svg>